<svg width="700" height="339" viewBox="0 0 700 339" fill="none" xmlns="http://www.w3.org/2000/svg">
<rect width="700" height="339" fill="#F1F4FB"/>
<rect x="30.5" y="263.5" width="639" height="45" fill="#5974FF" stroke="#FCFCFC"/>
<rect x="30.5" y="217.5" width="339" height="45" fill="#5974FF" stroke="#FCFCFC"/>
<rect x="30.5" y="171.5" width="239" height="45" fill="#5974FF" stroke="#FCFCFC"/>
<rect x="30.5" y="125.5" width="183" height="45" fill="#5974FF" stroke="#FCFCFC"/>
<rect x="30.5" y="79.5" width="139" height="45" fill="#5974FF" stroke="#FCFCFC"/>
<path d="M40.56 300V299.314C41.232 298.642 41.8293 298.035 42.352 297.494C42.8747 296.953 43.3133 296.453 43.668 295.996C44.0227 295.529 44.2933 295.105 44.48 294.722C44.6667 294.33 44.76 293.952 44.76 293.588C44.76 293.075 44.62 292.655 44.34 292.328C44.06 292.001 43.6353 291.838 43.066 291.838C42.6927 291.838 42.3473 291.945 42.03 292.16C41.7127 292.365 41.4233 292.617 41.162 292.916L40.504 292.258C40.8773 291.847 41.274 291.521 41.694 291.278C42.114 291.026 42.618 290.9 43.206 290.9C44.0367 290.9 44.69 291.143 45.166 291.628C45.642 292.104 45.88 292.739 45.88 293.532C45.88 293.952 45.7867 294.377 45.6 294.806C45.4227 295.226 45.1707 295.665 44.844 296.122C44.5267 296.57 44.144 297.041 43.696 297.536C43.2573 298.021 42.772 298.539 42.24 299.09C42.4827 299.071 42.7347 299.053 42.996 299.034C43.2573 299.015 43.5047 299.006 43.738 299.006H46.328V300H40.56ZM53.2477 300.168C52.3424 300.168 51.6377 299.767 51.1337 298.964C50.6297 298.161 50.3777 297.009 50.3777 295.506C50.3777 294.003 50.6297 292.86 51.1337 292.076C51.6377 291.292 52.3424 290.9 53.2477 290.9C54.1437 290.9 54.8437 291.292 55.3477 292.076C55.8517 292.86 56.1037 294.003 56.1037 295.506C56.1037 297.009 55.8517 298.161 55.3477 298.964C54.8437 299.767 54.1437 300.168 53.2477 300.168ZM53.2477 299.244C53.5091 299.244 53.7424 299.174 53.9477 299.034C54.1624 298.885 54.3444 298.661 54.4937 298.362C54.6524 298.054 54.7737 297.667 54.8577 297.2C54.9417 296.724 54.9837 296.159 54.9837 295.506C54.9837 294.853 54.9417 294.293 54.8577 293.826C54.7737 293.359 54.6524 292.981 54.4937 292.692C54.3444 292.393 54.1624 292.174 53.9477 292.034C53.7424 291.894 53.5091 291.824 53.2477 291.824C52.9864 291.824 52.7484 291.894 52.5337 292.034C52.3191 292.174 52.1324 292.393 51.9737 292.692C51.8244 292.981 51.7077 293.359 51.6237 293.826C51.5397 294.293 51.4977 294.853 51.4977 295.506C51.4977 296.813 51.6564 297.765 51.9737 298.362C52.3004 298.95 52.7251 299.244 53.2477 299.244ZM60.2067 300.168C59.3014 300.168 58.5967 299.767 58.0927 298.964C57.5887 298.161 57.3367 297.009 57.3367 295.506C57.3367 294.003 57.5887 292.86 58.0927 292.076C58.5967 291.292 59.3014 290.9 60.2067 290.9C61.1027 290.9 61.8027 291.292 62.3067 292.076C62.8107 292.86 63.0627 294.003 63.0627 295.506C63.0627 297.009 62.8107 298.161 62.3067 298.964C61.8027 299.767 61.1027 300.168 60.2067 300.168ZM60.2067 299.244C60.468 299.244 60.7014 299.174 60.9067 299.034C61.1214 298.885 61.3034 298.661 61.4527 298.362C61.6114 298.054 61.7327 297.667 61.8167 297.2C61.9007 296.724 61.9427 296.159 61.9427 295.506C61.9427 294.853 61.9007 294.293 61.8167 293.826C61.7327 293.359 61.6114 292.981 61.4527 292.692C61.3034 292.393 61.1214 292.174 60.9067 292.034C60.7014 291.894 60.468 291.824 60.2067 291.824C59.9454 291.824 59.7074 291.894 59.4927 292.034C59.278 292.174 59.0914 292.393 58.9327 292.692C58.7834 292.981 58.6667 293.359 58.5827 293.826C58.4987 294.293 58.4567 294.853 58.4567 295.506C58.4567 296.813 58.6154 297.765 58.9327 298.362C59.2594 298.95 59.684 299.244 60.2067 299.244ZM67.1657 300.168C66.2604 300.168 65.5557 299.767 65.0517 298.964C64.5477 298.161 64.2957 297.009 64.2957 295.506C64.2957 294.003 64.5477 292.86 65.0517 292.076C65.5557 291.292 66.2604 290.9 67.1657 290.9C68.0617 290.9 68.7617 291.292 69.2657 292.076C69.7697 292.86 70.0217 294.003 70.0217 295.506C70.0217 297.009 69.7697 298.161 69.2657 298.964C68.7617 299.767 68.0617 300.168 67.1657 300.168ZM67.1657 299.244C67.427 299.244 67.6604 299.174 67.8657 299.034C68.0804 298.885 68.2624 298.661 68.4117 298.362C68.5704 298.054 68.6917 297.667 68.7757 297.2C68.8597 296.724 68.9017 296.159 68.9017 295.506C68.9017 294.853 68.8597 294.293 68.7757 293.826C68.6917 293.359 68.5704 292.981 68.4117 292.692C68.2624 292.393 68.0804 292.174 67.8657 292.034C67.6604 291.894 67.427 291.824 67.1657 291.824C66.9044 291.824 66.6664 291.894 66.4517 292.034C66.237 292.174 66.0504 292.393 65.8917 292.692C65.7424 292.981 65.6257 293.359 65.5417 293.826C65.4577 294.293 65.4157 294.853 65.4157 295.506C65.4157 296.813 65.5744 297.765 65.8917 298.362C66.2184 298.95 66.643 299.244 67.1657 299.244Z" fill="#FCFCFC"/>
<path d="M40.56 282V281.314C41.232 280.642 41.8293 280.035 42.352 279.494C42.8747 278.953 43.3133 278.453 43.668 277.996C44.0227 277.529 44.2933 277.105 44.48 276.722C44.6667 276.33 44.76 275.952 44.76 275.588C44.76 275.075 44.62 274.655 44.34 274.328C44.06 274.001 43.6353 273.838 43.066 273.838C42.6927 273.838 42.3473 273.945 42.03 274.16C41.7127 274.365 41.4233 274.617 41.162 274.916L40.504 274.258C40.8773 273.847 41.274 273.521 41.694 273.278C42.114 273.026 42.618 272.9 43.206 272.9C44.0367 272.9 44.69 273.143 45.166 273.628C45.642 274.104 45.88 274.739 45.88 275.532C45.88 275.952 45.7867 276.377 45.6 276.806C45.4227 277.226 45.1707 277.665 44.844 278.122C44.5267 278.57 44.144 279.041 43.696 279.536C43.2573 280.021 42.772 280.539 42.24 281.09C42.4827 281.071 42.7347 281.053 42.996 281.034C43.2573 281.015 43.5047 281.006 43.738 281.006H46.328V282H40.56ZM50.445 282.168C49.5397 282.168 48.835 281.767 48.331 280.964C47.827 280.161 47.575 279.009 47.575 277.506C47.575 276.003 47.827 274.86 48.331 274.076C48.835 273.292 49.5397 272.9 50.445 272.9C51.341 272.9 52.041 273.292 52.545 274.076C53.049 274.86 53.301 276.003 53.301 277.506C53.301 279.009 53.049 280.161 52.545 280.964C52.041 281.767 51.341 282.168 50.445 282.168ZM50.445 281.244C50.7063 281.244 50.9397 281.174 51.145 281.034C51.3597 280.885 51.5417 280.661 51.691 280.362C51.8497 280.054 51.971 279.667 52.055 279.2C52.139 278.724 52.181 278.159 52.181 277.506C52.181 276.853 52.139 276.293 52.055 275.826C51.971 275.359 51.8497 274.981 51.691 274.692C51.5417 274.393 51.3597 274.174 51.145 274.034C50.9397 273.894 50.7063 273.824 50.445 273.824C50.1837 273.824 49.9457 273.894 49.731 274.034C49.5163 274.174 49.3297 274.393 49.171 274.692C49.0217 274.981 48.905 275.359 48.821 275.826C48.737 276.293 48.695 276.853 48.695 277.506C48.695 278.813 48.8537 279.765 49.171 280.362C49.4977 280.95 49.9223 281.244 50.445 281.244ZM54.478 282V281.314C55.15 280.642 55.7473 280.035 56.27 279.494C56.7926 278.953 57.2313 278.453 57.586 277.996C57.9406 277.529 58.2113 277.105 58.398 276.722C58.5846 276.33 58.678 275.952 58.678 275.588C58.678 275.075 58.538 274.655 58.258 274.328C57.978 274.001 57.5533 273.838 56.984 273.838C56.6106 273.838 56.2653 273.945 55.948 274.16C55.6306 274.365 55.3413 274.617 55.08 274.916L54.422 274.258C54.7953 273.847 55.192 273.521 55.612 273.278C56.032 273.026 56.536 272.9 57.124 272.9C57.9546 272.9 58.608 273.143 59.084 273.628C59.56 274.104 59.798 274.739 59.798 275.532C59.798 275.952 59.7046 276.377 59.518 276.806C59.3406 277.226 59.0886 277.665 58.762 278.122C58.4446 278.57 58.062 279.041 57.614 279.536C57.1753 280.021 56.69 280.539 56.158 281.09C56.4006 281.071 56.6526 281.053 56.914 281.034C57.1753 281.015 57.4226 281.006 57.656 281.006H60.246V282H54.478ZM64.363 282.168C63.4576 282.168 62.753 281.767 62.249 280.964C61.745 280.161 61.493 279.009 61.493 277.506C61.493 276.003 61.745 274.86 62.249 274.076C62.753 273.292 63.4576 272.9 64.363 272.9C65.259 272.9 65.959 273.292 66.463 274.076C66.967 274.86 67.219 276.003 67.219 277.506C67.219 279.009 66.967 280.161 66.463 280.964C65.959 281.767 65.259 282.168 64.363 282.168ZM64.363 281.244C64.6243 281.244 64.8576 281.174 65.063 281.034C65.2776 280.885 65.4596 280.661 65.609 280.362C65.7676 280.054 65.889 279.667 65.973 279.2C66.057 278.724 66.099 278.159 66.099 277.506C66.099 276.853 66.057 276.293 65.973 275.826C65.889 275.359 65.7676 274.981 65.609 274.692C65.4596 274.393 65.2776 274.174 65.063 274.034C64.8576 273.894 64.6243 273.824 64.363 273.824C64.1016 273.824 63.8636 273.894 63.649 274.034C63.4343 274.174 63.2476 274.393 63.089 274.692C62.9396 274.981 62.823 275.359 62.739 275.826C62.655 276.293 62.613 276.853 62.613 277.506C62.613 278.813 62.7716 279.765 63.089 280.362C63.4156 280.95 63.8403 281.244 64.363 281.244Z" fill="#FCFCFC"/>
<path d="M41.106 254V253.048H43.15V246.468H41.526V245.726C41.9367 245.651 42.2913 245.563 42.59 245.46C42.898 245.348 43.1733 245.217 43.416 245.068H44.298V253.048H46.146V254H41.106ZM53.2477 254.168C52.3424 254.168 51.6377 253.767 51.1337 252.964C50.6297 252.161 50.3777 251.009 50.3777 249.506C50.3777 248.003 50.6297 246.86 51.1337 246.076C51.6377 245.292 52.3424 244.9 53.2477 244.9C54.1437 244.9 54.8437 245.292 55.3477 246.076C55.8517 246.86 56.1037 248.003 56.1037 249.506C56.1037 251.009 55.8517 252.161 55.3477 252.964C54.8437 253.767 54.1437 254.168 53.2477 254.168ZM53.2477 253.244C53.5091 253.244 53.7424 253.174 53.9477 253.034C54.1624 252.885 54.3444 252.661 54.4937 252.362C54.6524 252.054 54.7737 251.667 54.8577 251.2C54.9417 250.724 54.9837 250.159 54.9837 249.506C54.9837 248.853 54.9417 248.293 54.8577 247.826C54.7737 247.359 54.6524 246.981 54.4937 246.692C54.3444 246.393 54.1624 246.174 53.9477 246.034C53.7424 245.894 53.5091 245.824 53.2477 245.824C52.9864 245.824 52.7484 245.894 52.5337 246.034C52.3191 246.174 52.1324 246.393 51.9737 246.692C51.8244 246.981 51.7077 247.359 51.6237 247.826C51.5397 248.293 51.4977 248.853 51.4977 249.506C51.4977 250.813 51.6564 251.765 51.9737 252.362C52.3004 252.95 52.7251 253.244 53.2477 253.244ZM60.2067 254.168C59.3014 254.168 58.5967 253.767 58.0927 252.964C57.5887 252.161 57.3367 251.009 57.3367 249.506C57.3367 248.003 57.5887 246.86 58.0927 246.076C58.5967 245.292 59.3014 244.9 60.2067 244.9C61.1027 244.9 61.8027 245.292 62.3067 246.076C62.8107 246.86 63.0627 248.003 63.0627 249.506C63.0627 251.009 62.8107 252.161 62.3067 252.964C61.8027 253.767 61.1027 254.168 60.2067 254.168ZM60.2067 253.244C60.468 253.244 60.7014 253.174 60.9067 253.034C61.1214 252.885 61.3034 252.661 61.4527 252.362C61.6114 252.054 61.7327 251.667 61.8167 251.2C61.9007 250.724 61.9427 250.159 61.9427 249.506C61.9427 248.853 61.9007 248.293 61.8167 247.826C61.7327 247.359 61.6114 246.981 61.4527 246.692C61.3034 246.393 61.1214 246.174 60.9067 246.034C60.7014 245.894 60.468 245.824 60.2067 245.824C59.9454 245.824 59.7074 245.894 59.4927 246.034C59.278 246.174 59.0914 246.393 58.9327 246.692C58.7834 246.981 58.6667 247.359 58.5827 247.826C58.4987 248.293 58.4567 248.853 58.4567 249.506C58.4567 250.813 58.6154 251.765 58.9327 252.362C59.2594 252.95 59.684 253.244 60.2067 253.244ZM67.1657 254.168C66.2604 254.168 65.5557 253.767 65.0517 252.964C64.5477 252.161 64.2957 251.009 64.2957 249.506C64.2957 248.003 64.5477 246.86 65.0517 246.076C65.5557 245.292 66.2604 244.9 67.1657 244.9C68.0617 244.9 68.7617 245.292 69.2657 246.076C69.7697 246.86 70.0217 248.003 70.0217 249.506C70.0217 251.009 69.7697 252.161 69.2657 252.964C68.7617 253.767 68.0617 254.168 67.1657 254.168ZM67.1657 253.244C67.427 253.244 67.6604 253.174 67.8657 253.034C68.0804 252.885 68.2624 252.661 68.4117 252.362C68.5704 252.054 68.6917 251.667 68.7757 251.2C68.8597 250.724 68.9017 250.159 68.9017 249.506C68.9017 248.853 68.8597 248.293 68.7757 247.826C68.6917 247.359 68.5704 246.981 68.4117 246.692C68.2624 246.393 68.0804 246.174 67.8657 246.034C67.6604 245.894 67.427 245.824 67.1657 245.824C66.9044 245.824 66.6664 245.894 66.4517 246.034C66.237 246.174 66.0504 246.393 65.8917 246.692C65.7424 246.981 65.6257 247.359 65.5417 247.826C65.4577 248.293 65.4157 248.853 65.4157 249.506C65.4157 250.813 65.5744 251.765 65.8917 252.362C66.2184 252.95 66.643 253.244 67.1657 253.244Z" fill="#FCFCFC"/>
<path d="M40.56 236V235.314C41.232 234.642 41.8293 234.035 42.352 233.494C42.8747 232.953 43.3133 232.453 43.668 231.996C44.0227 231.529 44.2933 231.105 44.48 230.722C44.6667 230.33 44.76 229.952 44.76 229.588C44.76 229.075 44.62 228.655 44.34 228.328C44.06 228.001 43.6353 227.838 43.066 227.838C42.6927 227.838 42.3473 227.945 42.03 228.16C41.7127 228.365 41.4233 228.617 41.162 228.916L40.504 228.258C40.8773 227.847 41.274 227.521 41.694 227.278C42.114 227.026 42.618 226.9 43.206 226.9C44.0367 226.9 44.69 227.143 45.166 227.628C45.642 228.104 45.88 228.739 45.88 229.532C45.88 229.952 45.7867 230.377 45.6 230.806C45.4227 231.226 45.1707 231.665 44.844 232.122C44.5267 232.57 44.144 233.041 43.696 233.536C43.2573 234.021 42.772 234.539 42.24 235.09C42.4827 235.071 42.7347 235.053 42.996 235.034C43.2573 235.015 43.5047 235.006 43.738 235.006H46.328V236H40.56ZM50.445 236.168C49.5397 236.168 48.835 235.767 48.331 234.964C47.827 234.161 47.575 233.009 47.575 231.506C47.575 230.003 47.827 228.86 48.331 228.076C48.835 227.292 49.5397 226.9 50.445 226.9C51.341 226.9 52.041 227.292 52.545 228.076C53.049 228.86 53.301 230.003 53.301 231.506C53.301 233.009 53.049 234.161 52.545 234.964C52.041 235.767 51.341 236.168 50.445 236.168ZM50.445 235.244C50.7063 235.244 50.9397 235.174 51.145 235.034C51.3597 234.885 51.5417 234.661 51.691 234.362C51.8497 234.054 51.971 233.667 52.055 233.2C52.139 232.724 52.181 232.159 52.181 231.506C52.181 230.853 52.139 230.293 52.055 229.826C51.971 229.359 51.8497 228.981 51.691 228.692C51.5417 228.393 51.3597 228.174 51.145 228.034C50.9397 227.894 50.7063 227.824 50.445 227.824C50.1837 227.824 49.9457 227.894 49.731 228.034C49.5163 228.174 49.3297 228.393 49.171 228.692C49.0217 228.981 48.905 229.359 48.821 229.826C48.737 230.293 48.695 230.853 48.695 231.506C48.695 232.813 48.8537 233.765 49.171 234.362C49.4977 234.95 49.9223 235.244 50.445 235.244ZM55.024 236V235.048H57.068V228.468H55.444V227.726C55.8546 227.651 56.2093 227.563 56.508 227.46C56.816 227.348 57.0913 227.217 57.334 227.068H58.216V235.048H60.064V236H55.024ZM64.167 231.66C64.4656 231.66 64.7783 231.567 65.105 231.38C65.441 231.193 65.7536 230.89 66.043 230.47C65.9683 229.593 65.763 228.93 65.427 228.482C65.091 228.034 64.6383 227.81 64.069 227.81C63.8543 227.81 63.649 227.857 63.453 227.95C63.2663 228.043 63.103 228.179 62.963 228.356C62.823 228.524 62.711 228.729 62.627 228.972C62.5523 229.215 62.515 229.481 62.515 229.77C62.515 230.358 62.6503 230.82 62.921 231.156C63.1916 231.492 63.607 231.66 64.167 231.66ZM63.747 236.168C63.271 236.168 62.851 236.079 62.487 235.902C62.1323 235.725 61.8336 235.501 61.591 235.23L62.235 234.502C62.4216 234.717 62.641 234.889 62.893 235.02C63.1543 235.151 63.425 235.216 63.705 235.216C64.0223 235.216 64.321 235.151 64.601 235.02C64.881 234.889 65.1283 234.675 65.343 234.376C65.5576 234.068 65.7303 233.671 65.861 233.186C65.9916 232.701 66.0616 232.099 66.071 231.38C65.791 231.735 65.4643 232.015 65.091 232.22C64.7176 232.425 64.3443 232.528 63.971 232.528C63.1963 232.528 62.5803 232.299 62.123 231.842C61.6656 231.385 61.437 230.694 61.437 229.77C61.437 229.341 61.507 228.953 61.647 228.608C61.787 228.253 61.9736 227.95 62.207 227.698C62.4496 227.446 62.7296 227.25 63.047 227.11C63.3736 226.97 63.7143 226.9 64.069 226.9C64.5076 226.9 64.9136 226.989 65.287 227.166C65.6696 227.343 65.9963 227.614 66.267 227.978C66.547 228.333 66.7616 228.781 66.911 229.322C67.0696 229.854 67.149 230.479 67.149 231.198C67.149 232.094 67.0556 232.859 66.869 233.494C66.6823 234.119 66.4303 234.633 66.113 235.034C65.7956 235.426 65.4316 235.715 65.021 235.902C64.6196 236.079 64.195 236.168 63.747 236.168Z" fill="#FCFCFC"/>
<path d="M43.276 208.168C42.9213 208.168 42.5947 208.131 42.296 208.056C42.0067 207.991 41.7407 207.902 41.498 207.79C41.2647 207.678 41.05 207.552 40.854 207.412C40.6673 207.263 40.4993 207.109 40.35 206.95L40.91 206.194C41.1713 206.465 41.4793 206.703 41.834 206.908C42.198 207.113 42.6413 207.216 43.164 207.216C43.4347 207.216 43.6867 207.169 43.92 207.076C44.1627 206.973 44.3727 206.833 44.55 206.656C44.7273 206.479 44.8673 206.264 44.97 206.012C45.0727 205.76 45.124 205.48 45.124 205.172C45.124 204.556 44.9513 204.075 44.606 203.73C44.2607 203.385 43.7987 203.212 43.22 203.212C42.912 203.212 42.646 203.259 42.422 203.352C42.2073 203.445 41.9647 203.581 41.694 203.758L41.078 203.366L41.372 199.068H45.838V200.062H42.38L42.142 202.708C42.3567 202.596 42.5713 202.507 42.786 202.442C43.0007 202.377 43.2433 202.344 43.514 202.344C43.8967 202.344 44.256 202.4 44.592 202.512C44.928 202.624 45.222 202.797 45.474 203.03C45.726 203.254 45.922 203.543 46.062 203.898C46.2113 204.243 46.286 204.659 46.286 205.144C46.286 205.629 46.202 206.059 46.034 206.432C45.866 206.805 45.642 207.123 45.362 207.384C45.082 207.636 44.76 207.832 44.396 207.972C44.0413 208.103 43.668 208.168 43.276 208.168ZM50.445 208.168C49.5397 208.168 48.835 207.767 48.331 206.964C47.827 206.161 47.575 205.009 47.575 203.506C47.575 202.003 47.827 200.86 48.331 200.076C48.835 199.292 49.5397 198.9 50.445 198.9C51.341 198.9 52.041 199.292 52.545 200.076C53.049 200.86 53.301 202.003 53.301 203.506C53.301 205.009 53.049 206.161 52.545 206.964C52.041 207.767 51.341 208.168 50.445 208.168ZM50.445 207.244C50.7063 207.244 50.9397 207.174 51.145 207.034C51.3597 206.885 51.5417 206.661 51.691 206.362C51.8497 206.054 51.971 205.667 52.055 205.2C52.139 204.724 52.181 204.159 52.181 203.506C52.181 202.853 52.139 202.293 52.055 201.826C51.971 201.359 51.8497 200.981 51.691 200.692C51.5417 200.393 51.3597 200.174 51.145 200.034C50.9397 199.894 50.7063 199.824 50.445 199.824C50.1837 199.824 49.9457 199.894 49.731 200.034C49.5163 200.174 49.3297 200.393 49.171 200.692C49.0217 200.981 48.905 201.359 48.821 201.826C48.737 202.293 48.695 202.853 48.695 203.506C48.695 204.813 48.8537 205.765 49.171 206.362C49.4977 206.95 49.9223 207.244 50.445 207.244ZM54.478 208V207.314C55.15 206.642 55.7473 206.035 56.27 205.494C56.7926 204.953 57.2313 204.453 57.586 203.996C57.9406 203.529 58.2113 203.105 58.398 202.722C58.5846 202.33 58.678 201.952 58.678 201.588C58.678 201.075 58.538 200.655 58.258 200.328C57.978 200.001 57.5533 199.838 56.984 199.838C56.6106 199.838 56.2653 199.945 55.948 200.16C55.6306 200.365 55.3413 200.617 55.08 200.916L54.422 200.258C54.7953 199.847 55.192 199.521 55.612 199.278C56.032 199.026 56.536 198.9 57.124 198.9C57.9546 198.9 58.608 199.143 59.084 199.628C59.56 200.104 59.798 200.739 59.798 201.532C59.798 201.952 59.7046 202.377 59.518 202.806C59.3406 203.226 59.0886 203.665 58.762 204.122C58.4446 204.57 58.062 205.041 57.614 205.536C57.1753 206.021 56.69 206.539 56.158 207.09C56.4006 207.071 56.6526 207.053 56.914 207.034C57.1753 207.015 57.4226 207.006 57.656 207.006H60.246V208H54.478ZM61.815 210.38L61.535 209.708C61.9363 209.531 62.249 209.293 62.473 208.994C62.697 208.705 62.8043 208.373 62.795 208C62.767 208.009 62.7203 208.014 62.655 208.014C62.431 208.014 62.235 207.949 62.067 207.818C61.9083 207.678 61.829 207.477 61.829 207.216C61.829 206.964 61.913 206.768 62.081 206.628C62.249 206.479 62.4496 206.404 62.683 206.404C62.9816 206.404 63.215 206.525 63.383 206.768C63.5603 207.011 63.649 207.342 63.649 207.762C63.649 208.369 63.4856 208.896 63.159 209.344C62.8323 209.792 62.3843 210.137 61.815 210.38ZM67.8493 208.168C66.9439 208.168 66.2393 207.767 65.7353 206.964C65.2313 206.161 64.9793 205.009 64.9793 203.506C64.9793 202.003 65.2313 200.86 65.7353 200.076C66.2393 199.292 66.9439 198.9 67.8493 198.9C68.7453 198.9 69.4453 199.292 69.9493 200.076C70.4533 200.86 70.7053 202.003 70.7053 203.506C70.7053 205.009 70.4533 206.161 69.9493 206.964C69.4453 207.767 68.7453 208.168 67.8493 208.168ZM67.8493 207.244C68.1106 207.244 68.3439 207.174 68.5493 207.034C68.7639 206.885 68.9459 206.661 69.0953 206.362C69.2539 206.054 69.3753 205.667 69.4593 205.2C69.5433 204.724 69.5853 204.159 69.5853 203.506C69.5853 202.853 69.5433 202.293 69.4593 201.826C69.3753 201.359 69.2539 200.981 69.0953 200.692C68.9459 200.393 68.7639 200.174 68.5493 200.034C68.3439 199.894 68.1106 199.824 67.8493 199.824C67.5879 199.824 67.3499 199.894 67.1353 200.034C66.9206 200.174 66.7339 200.393 66.5753 200.692C66.4259 200.981 66.3093 201.359 66.2253 201.826C66.1413 202.293 66.0993 202.853 66.0993 203.506C66.0993 204.813 66.2579 205.765 66.5753 206.362C66.9019 206.95 67.3266 207.244 67.8493 207.244Z" fill="#FCFCFC"/>
<path d="M40.56 190V189.314C41.232 188.642 41.8293 188.035 42.352 187.494C42.8747 186.953 43.3133 186.453 43.668 185.996C44.0227 185.529 44.2933 185.105 44.48 184.722C44.6667 184.33 44.76 183.952 44.76 183.588C44.76 183.075 44.62 182.655 44.34 182.328C44.06 182.001 43.6353 181.838 43.066 181.838C42.6927 181.838 42.3473 181.945 42.03 182.16C41.7127 182.365 41.4233 182.617 41.162 182.916L40.504 182.258C40.8773 181.847 41.274 181.521 41.694 181.278C42.114 181.026 42.618 180.9 43.206 180.9C44.0367 180.9 44.69 181.143 45.166 181.628C45.642 182.104 45.88 182.739 45.88 183.532C45.88 183.952 45.7867 184.377 45.6 184.806C45.4227 185.226 45.1707 185.665 44.844 186.122C44.5267 186.57 44.144 187.041 43.696 187.536C43.2573 188.021 42.772 188.539 42.24 189.09C42.4827 189.071 42.7347 189.053 42.996 189.034C43.2573 189.015 43.5047 189.006 43.738 189.006H46.328V190H40.56ZM50.445 190.168C49.5397 190.168 48.835 189.767 48.331 188.964C47.827 188.161 47.575 187.009 47.575 185.506C47.575 184.003 47.827 182.86 48.331 182.076C48.835 181.292 49.5397 180.9 50.445 180.9C51.341 180.9 52.041 181.292 52.545 182.076C53.049 182.86 53.301 184.003 53.301 185.506C53.301 187.009 53.049 188.161 52.545 188.964C52.041 189.767 51.341 190.168 50.445 190.168ZM50.445 189.244C50.7063 189.244 50.9397 189.174 51.145 189.034C51.3597 188.885 51.5417 188.661 51.691 188.362C51.8497 188.054 51.971 187.667 52.055 187.2C52.139 186.724 52.181 186.159 52.181 185.506C52.181 184.853 52.139 184.293 52.055 183.826C51.971 183.359 51.8497 182.981 51.691 182.692C51.5417 182.393 51.3597 182.174 51.145 182.034C50.9397 181.894 50.7063 181.824 50.445 181.824C50.1837 181.824 49.9457 181.894 49.731 182.034C49.5163 182.174 49.3297 182.393 49.171 182.692C49.0217 182.981 48.905 183.359 48.821 183.826C48.737 184.293 48.695 184.853 48.695 185.506C48.695 186.813 48.8537 187.765 49.171 188.362C49.4977 188.95 49.9223 189.244 50.445 189.244ZM55.024 190V189.048H57.068V182.468H55.444V181.726C55.8546 181.651 56.2093 181.563 56.508 181.46C56.816 181.348 57.0913 181.217 57.334 181.068H58.216V189.048H60.064V190H55.024ZM64.377 190.168C63.957 190.168 63.565 190.107 63.201 189.986C62.8463 189.865 62.5383 189.697 62.277 189.482C62.025 189.258 61.8243 188.997 61.675 188.698C61.5256 188.399 61.451 188.073 61.451 187.718C61.451 187.429 61.4976 187.163 61.591 186.92C61.6936 186.668 61.8196 186.444 61.969 186.248C62.1276 186.043 62.305 185.865 62.501 185.716C62.7063 185.557 62.9163 185.422 63.131 185.31V185.254C62.8043 185.021 62.515 184.741 62.263 184.414C62.011 184.078 61.885 183.672 61.885 183.196C61.885 182.851 61.9503 182.538 62.081 182.258C62.2116 181.978 62.389 181.74 62.613 181.544C62.837 181.339 63.103 181.18 63.411 181.068C63.719 180.956 64.055 180.9 64.419 180.9C64.811 180.9 65.161 180.961 65.469 181.082C65.777 181.194 66.0383 181.357 66.253 181.572C66.477 181.777 66.645 182.029 66.757 182.328C66.8783 182.617 66.939 182.935 66.939 183.28C66.939 183.513 66.897 183.737 66.813 183.952C66.7383 184.167 66.6403 184.367 66.519 184.554C66.407 184.741 66.2763 184.909 66.127 185.058C65.987 185.207 65.847 185.333 65.707 185.436V185.492C65.903 185.604 66.0943 185.735 66.281 185.884C66.4676 186.024 66.631 186.187 66.771 186.374C66.9203 186.551 67.037 186.757 67.121 186.99C67.2143 187.223 67.261 187.489 67.261 187.788C67.261 188.124 67.191 188.437 67.051 188.726C66.911 189.015 66.715 189.267 66.463 189.482C66.211 189.697 65.9076 189.865 65.553 189.986C65.1983 190.107 64.8063 190.168 64.377 190.168ZM65.007 185.128C65.3056 184.857 65.5343 184.573 65.693 184.274C65.861 183.975 65.945 183.663 65.945 183.336C65.945 182.888 65.8096 182.515 65.539 182.216C65.2683 181.908 64.8856 181.754 64.391 181.754C63.971 181.754 63.6256 181.885 63.355 182.146C63.0843 182.407 62.949 182.757 62.949 183.196C62.949 183.467 63.005 183.7 63.117 183.896C63.229 184.083 63.3783 184.251 63.565 184.4C63.761 184.549 63.9803 184.685 64.223 184.806C64.475 184.918 64.7363 185.025 65.007 185.128ZM64.405 189.314C64.9276 189.314 65.3476 189.169 65.665 188.88C65.9916 188.591 66.155 188.213 66.155 187.746C66.155 187.457 66.0896 187.209 65.959 187.004C65.8283 186.799 65.651 186.621 65.427 186.472C65.203 186.313 64.9416 186.173 64.643 186.052C64.3536 185.921 64.0503 185.791 63.733 185.66C63.3783 185.903 63.0796 186.187 62.837 186.514C62.6036 186.831 62.487 187.195 62.487 187.606C62.487 187.858 62.5336 188.087 62.627 188.292C62.7296 188.497 62.865 188.679 63.033 188.838C63.2103 188.987 63.4156 189.104 63.649 189.188C63.8823 189.272 64.1343 189.314 64.405 189.314Z" fill="#FCFCFC"/>
<path d="M43.304 162.168C42.9493 162.168 42.6227 162.131 42.324 162.056C42.0347 161.991 41.7687 161.902 41.526 161.79C41.2833 161.669 41.064 161.533 40.868 161.384C40.6813 161.235 40.5133 161.076 40.364 160.908L40.952 160.152C41.2227 160.432 41.5353 160.679 41.89 160.894C42.254 161.109 42.702 161.216 43.234 161.216C43.7753 161.216 44.2187 161.071 44.564 160.782C44.9093 160.483 45.082 160.082 45.082 159.578C45.082 159.317 45.0307 159.079 44.928 158.864C44.8347 158.64 44.676 158.449 44.452 158.29C44.228 158.131 43.934 158.01 43.57 157.926C43.206 157.842 42.758 157.8 42.226 157.8V156.918C42.702 156.918 43.0987 156.876 43.416 156.792C43.7427 156.708 44.004 156.591 44.2 156.442C44.4053 156.293 44.55 156.115 44.634 155.91C44.718 155.705 44.76 155.485 44.76 155.252C44.76 154.813 44.62 154.468 44.34 154.216C44.0693 153.964 43.696 153.838 43.22 153.838C42.8467 153.838 42.5013 153.922 42.184 154.09C41.876 154.258 41.5867 154.477 41.316 154.748L40.7 154.02C41.0453 153.693 41.4233 153.427 41.834 153.222C42.254 153.007 42.73 152.9 43.262 152.9C43.654 152.9 44.0133 152.951 44.34 153.054C44.6667 153.157 44.9467 153.306 45.18 153.502C45.4227 153.689 45.6093 153.922 45.74 154.202C45.8707 154.482 45.936 154.804 45.936 155.168C45.936 155.709 45.7867 156.153 45.488 156.498C45.1893 156.843 44.7973 157.109 44.312 157.296V157.352C44.5827 157.417 44.8347 157.515 45.068 157.646C45.3013 157.767 45.5067 157.926 45.684 158.122C45.8613 158.309 45.9967 158.528 46.09 158.78C46.1927 159.032 46.244 159.312 46.244 159.62C46.244 160.012 46.1647 160.367 46.006 160.684C45.8567 161.001 45.6467 161.272 45.376 161.496C45.1147 161.711 44.8067 161.879 44.452 162C44.0973 162.112 43.7147 162.168 43.304 162.168ZM48.065 162V161.048H50.109V154.468H48.485V153.726C48.8957 153.651 49.2503 153.563 49.549 153.46C49.857 153.348 50.1323 153.217 50.375 153.068H51.257V161.048H53.105V162H48.065ZM57.404 162.168C56.4986 162.168 55.794 161.767 55.29 160.964C54.786 160.161 54.534 159.009 54.534 157.506C54.534 156.003 54.786 154.86 55.29 154.076C55.794 153.292 56.4986 152.9 57.404 152.9C58.3 152.9 59 153.292 59.504 154.076C60.008 154.86 60.26 156.003 60.26 157.506C60.26 159.009 60.008 160.161 59.504 160.964C59 161.767 58.3 162.168 57.404 162.168ZM57.404 161.244C57.6653 161.244 57.8986 161.174 58.104 161.034C58.3186 160.885 58.5006 160.661 58.65 160.362C58.8086 160.054 58.93 159.667 59.014 159.2C59.098 158.724 59.14 158.159 59.14 157.506C59.14 156.853 59.098 156.293 59.014 155.826C58.93 155.359 58.8086 154.981 58.65 154.692C58.5006 154.393 58.3186 154.174 58.104 154.034C57.8986 153.894 57.6653 153.824 57.404 153.824C57.1426 153.824 56.9046 153.894 56.69 154.034C56.4753 154.174 56.2886 154.393 56.13 154.692C55.9806 154.981 55.864 155.359 55.78 155.826C55.696 156.293 55.654 156.853 55.654 157.506C55.654 158.813 55.8126 159.765 56.13 160.362C56.4566 160.95 56.8813 161.244 57.404 161.244ZM61.815 164.38L61.535 163.708C61.9363 163.531 62.249 163.293 62.473 162.994C62.697 162.705 62.8043 162.373 62.795 162C62.767 162.009 62.7203 162.014 62.655 162.014C62.431 162.014 62.235 161.949 62.067 161.818C61.9083 161.678 61.829 161.477 61.829 161.216C61.829 160.964 61.913 160.768 62.081 160.628C62.249 160.479 62.4496 160.404 62.683 160.404C62.9816 160.404 63.215 160.525 63.383 160.768C63.5603 161.011 63.649 161.342 63.649 161.762C63.649 162.369 63.4856 162.896 63.159 163.344C62.8323 163.792 62.3843 164.137 61.815 164.38ZM67.6673 162.168C67.3126 162.168 66.9859 162.131 66.6873 162.056C66.3979 161.991 66.1319 161.902 65.8893 161.79C65.6466 161.669 65.4273 161.533 65.2313 161.384C65.0446 161.235 64.8766 161.076 64.7273 160.908L65.3153 160.152C65.5859 160.432 65.8986 160.679 66.2533 160.894C66.6173 161.109 67.0653 161.216 67.5973 161.216C68.1386 161.216 68.5819 161.071 68.9273 160.782C69.2726 160.483 69.4453 160.082 69.4453 159.578C69.4453 159.317 69.3939 159.079 69.2913 158.864C69.1979 158.64 69.0393 158.449 68.8153 158.29C68.5913 158.131 68.2973 158.01 67.9333 157.926C67.5693 157.842 67.1213 157.8 66.5893 157.8V156.918C67.0653 156.918 67.4619 156.876 67.7793 156.792C68.1059 156.708 68.3673 156.591 68.5633 156.442C68.7686 156.293 68.9133 156.115 68.9973 155.91C69.0813 155.705 69.1233 155.485 69.1233 155.252C69.1233 154.813 68.9833 154.468 68.7033 154.216C68.4326 153.964 68.0593 153.838 67.5833 153.838C67.2099 153.838 66.8646 153.922 66.5473 154.09C66.2393 154.258 65.9499 154.477 65.6793 154.748L65.0633 154.02C65.4086 153.693 65.7866 153.427 66.1973 153.222C66.6173 153.007 67.0933 152.9 67.6253 152.9C68.0173 152.9 68.3766 152.951 68.7033 153.054C69.0299 153.157 69.3099 153.306 69.5433 153.502C69.7859 153.689 69.9726 153.922 70.1033 154.202C70.2339 154.482 70.2993 154.804 70.2993 155.168C70.2993 155.709 70.1499 156.153 69.8513 156.498C69.5526 156.843 69.1606 157.109 68.6753 157.296V157.352C68.9459 157.417 69.1979 157.515 69.4313 157.646C69.6646 157.767 69.8699 157.926 70.0473 158.122C70.2246 158.309 70.3599 158.528 70.4533 158.78C70.5559 159.032 70.6073 159.312 70.6073 159.62C70.6073 160.012 70.5279 160.367 70.3693 160.684C70.2199 161.001 70.0099 161.272 69.7393 161.496C69.4779 161.711 69.1699 161.879 68.8153 162C68.4606 162.112 68.0779 162.168 67.6673 162.168Z" fill="#FCFCFC"/>
<path d="M40.56 144V143.314C41.232 142.642 41.8293 142.035 42.352 141.494C42.8747 140.953 43.3133 140.453 43.668 139.996C44.0227 139.529 44.2933 139.105 44.48 138.722C44.6667 138.33 44.76 137.952 44.76 137.588C44.76 137.075 44.62 136.655 44.34 136.328C44.06 136.001 43.6353 135.838 43.066 135.838C42.6927 135.838 42.3473 135.945 42.03 136.16C41.7127 136.365 41.4233 136.617 41.162 136.916L40.504 136.258C40.8773 135.847 41.274 135.521 41.694 135.278C42.114 135.026 42.618 134.9 43.206 134.9C44.0367 134.9 44.69 135.143 45.166 135.628C45.642 136.104 45.88 136.739 45.88 137.532C45.88 137.952 45.7867 138.377 45.6 138.806C45.4227 139.226 45.1707 139.665 44.844 140.122C44.5267 140.57 44.144 141.041 43.696 141.536C43.2573 142.021 42.772 142.539 42.24 143.09C42.4827 143.071 42.7347 143.053 42.996 143.034C43.2573 143.015 43.5047 143.006 43.738 143.006H46.328V144H40.56ZM50.445 144.168C49.5397 144.168 48.835 143.767 48.331 142.964C47.827 142.161 47.575 141.009 47.575 139.506C47.575 138.003 47.827 136.86 48.331 136.076C48.835 135.292 49.5397 134.9 50.445 134.9C51.341 134.9 52.041 135.292 52.545 136.076C53.049 136.86 53.301 138.003 53.301 139.506C53.301 141.009 53.049 142.161 52.545 142.964C52.041 143.767 51.341 144.168 50.445 144.168ZM50.445 143.244C50.7063 143.244 50.9397 143.174 51.145 143.034C51.3597 142.885 51.5417 142.661 51.691 142.362C51.8497 142.054 51.971 141.667 52.055 141.2C52.139 140.724 52.181 140.159 52.181 139.506C52.181 138.853 52.139 138.293 52.055 137.826C51.971 137.359 51.8497 136.981 51.691 136.692C51.5417 136.393 51.3597 136.174 51.145 136.034C50.9397 135.894 50.7063 135.824 50.445 135.824C50.1837 135.824 49.9457 135.894 49.731 136.034C49.5163 136.174 49.3297 136.393 49.171 136.692C49.0217 136.981 48.905 137.359 48.821 137.826C48.737 138.293 48.695 138.853 48.695 139.506C48.695 140.813 48.8537 141.765 49.171 142.362C49.4977 142.95 49.9223 143.244 50.445 143.244ZM55.024 144V143.048H57.068V136.468H55.444V135.726C55.8546 135.651 56.2093 135.563 56.508 135.46C56.816 135.348 57.0913 135.217 57.334 135.068H58.216V143.048H60.064V144H55.024ZM63.355 144C63.3923 143.16 63.467 142.39 63.579 141.69C63.691 140.99 63.845 140.327 64.041 139.702C64.2463 139.067 64.503 138.456 64.811 137.868C65.1283 137.28 65.5063 136.678 65.945 136.062H61.493V135.068H67.247V135.782C66.715 136.454 66.281 137.098 65.945 137.714C65.6183 138.33 65.357 138.96 65.161 139.604C64.965 140.239 64.8203 140.915 64.727 141.634C64.643 142.343 64.5823 143.132 64.545 144H63.355Z" fill="#FCFCFC"/>
<path d="M41.106 116V115.048H43.15V108.468H41.526V107.726C41.9367 107.651 42.2913 107.563 42.59 107.46C42.898 107.348 43.1733 107.217 43.416 107.068H44.298V115.048H46.146V116H41.106ZM50.249 111.66C50.5477 111.66 50.8603 111.567 51.187 111.38C51.523 111.193 51.8357 110.89 52.125 110.47C52.0503 109.593 51.845 108.93 51.509 108.482C51.173 108.034 50.7203 107.81 50.151 107.81C49.9363 107.81 49.731 107.857 49.535 107.95C49.3483 108.043 49.185 108.179 49.045 108.356C48.905 108.524 48.793 108.729 48.709 108.972C48.6343 109.215 48.597 109.481 48.597 109.77C48.597 110.358 48.7323 110.82 49.003 111.156C49.2737 111.492 49.689 111.66 50.249 111.66ZM49.829 116.168C49.353 116.168 48.933 116.079 48.569 115.902C48.2143 115.725 47.9157 115.501 47.673 115.23L48.317 114.502C48.5037 114.717 48.723 114.889 48.975 115.02C49.2363 115.151 49.507 115.216 49.787 115.216C50.1043 115.216 50.403 115.151 50.683 115.02C50.963 114.889 51.2103 114.675 51.425 114.376C51.6397 114.068 51.8123 113.671 51.943 113.186C52.0737 112.701 52.1437 112.099 52.153 111.38C51.873 111.735 51.5463 112.015 51.173 112.22C50.7997 112.425 50.4263 112.528 50.053 112.528C49.2783 112.528 48.6623 112.299 48.205 111.842C47.7477 111.385 47.519 110.694 47.519 109.77C47.519 109.341 47.589 108.953 47.729 108.608C47.869 108.253 48.0557 107.95 48.289 107.698C48.5317 107.446 48.8117 107.25 49.129 107.11C49.4557 106.97 49.7963 106.9 50.151 106.9C50.5897 106.9 50.9957 106.989 51.369 107.166C51.7517 107.343 52.0783 107.614 52.349 107.978C52.629 108.333 52.8437 108.781 52.993 109.322C53.1517 109.854 53.231 110.479 53.231 111.198C53.231 112.094 53.1377 112.859 52.951 113.494C52.7643 114.119 52.5123 114.633 52.195 115.034C51.8777 115.426 51.5137 115.715 51.103 115.902C50.7017 116.079 50.277 116.168 49.829 116.168ZM58.174 116V113.536H54.156V112.78L57.978 107.068H59.266V112.612H60.484V113.536H59.266V116H58.174ZM55.374 112.612H58.174V110.022C58.174 109.779 58.1786 109.495 58.188 109.168C58.2066 108.832 58.2253 108.543 58.244 108.3H58.188C58.076 108.515 57.9593 108.725 57.838 108.93C57.7166 109.135 57.5906 109.345 57.46 109.56L55.374 112.612ZM61.815 118.38L61.535 117.708C61.9363 117.531 62.249 117.293 62.473 116.994C62.697 116.705 62.8043 116.373 62.795 116C62.767 116.009 62.7203 116.014 62.655 116.014C62.431 116.014 62.235 115.949 62.067 115.818C61.9083 115.678 61.829 115.477 61.829 115.216C61.829 114.964 61.913 114.768 62.081 114.628C62.249 114.479 62.4496 114.404 62.683 114.404C62.9816 114.404 63.215 114.525 63.383 114.768C63.5603 115.011 63.649 115.342 63.649 115.762C63.649 116.369 63.4856 116.896 63.159 117.344C62.8323 117.792 62.3843 118.137 61.815 118.38ZM67.6393 116.168C67.2846 116.168 66.9579 116.131 66.6593 116.056C66.3699 115.991 66.1039 115.902 65.8613 115.79C65.6279 115.678 65.4133 115.552 65.2173 115.412C65.0306 115.263 64.8626 115.109 64.7133 114.95L65.2733 114.194C65.5346 114.465 65.8426 114.703 66.1973 114.908C66.5613 115.113 67.0046 115.216 67.5273 115.216C67.7979 115.216 68.0499 115.169 68.2833 115.076C68.5259 114.973 68.7359 114.833 68.9133 114.656C69.0906 114.479 69.2306 114.264 69.3333 114.012C69.4359 113.76 69.4873 113.48 69.4873 113.172C69.4873 112.556 69.3146 112.075 68.9693 111.73C68.6239 111.385 68.1619 111.212 67.5833 111.212C67.2753 111.212 67.0093 111.259 66.7853 111.352C66.5706 111.445 66.3279 111.581 66.0573 111.758L65.4413 111.366L65.7353 107.068H70.2013V108.062H66.7433L66.5053 110.708C66.7199 110.596 66.9346 110.507 67.1493 110.442C67.3639 110.377 67.6066 110.344 67.8773 110.344C68.2599 110.344 68.6193 110.4 68.9553 110.512C69.2913 110.624 69.5853 110.797 69.8373 111.03C70.0893 111.254 70.2853 111.543 70.4253 111.898C70.5746 112.243 70.6493 112.659 70.6493 113.144C70.6493 113.629 70.5653 114.059 70.3973 114.432C70.2293 114.805 70.0053 115.123 69.7253 115.384C69.4453 115.636 69.1233 115.832 68.7593 115.972C68.4046 116.103 68.0313 116.168 67.6393 116.168Z" fill="#FCFCFC"/>
<path d="M40.56 98V97.314C41.232 96.642 41.8293 96.0353 42.352 95.494C42.8747 94.9527 43.3133 94.4533 43.668 93.996C44.0227 93.5293 44.2933 93.1047 44.48 92.722C44.6667 92.33 44.76 91.952 44.76 91.588C44.76 91.0747 44.62 90.6547 44.34 90.328C44.06 90.0013 43.6353 89.838 43.066 89.838C42.6927 89.838 42.3473 89.9453 42.03 90.16C41.7127 90.3653 41.4233 90.6173 41.162 90.916L40.504 90.258C40.8773 89.8473 41.274 89.5207 41.694 89.278C42.114 89.026 42.618 88.9 43.206 88.9C44.0367 88.9 44.69 89.1427 45.166 89.628C45.642 90.104 45.88 90.7387 45.88 91.532C45.88 91.952 45.7867 92.3767 45.6 92.806C45.4227 93.226 45.1707 93.6647 44.844 94.122C44.5267 94.57 44.144 95.0413 43.696 95.536C43.2573 96.0213 42.772 96.5393 42.24 97.09C42.4827 97.0713 42.7347 97.0527 42.996 97.034C43.2573 97.0153 43.5047 97.006 43.738 97.006H46.328V98H40.56ZM50.445 98.168C49.5397 98.168 48.835 97.7667 48.331 96.964C47.827 96.1613 47.575 95.0087 47.575 93.506C47.575 92.0033 47.827 90.86 48.331 90.076C48.835 89.292 49.5397 88.9 50.445 88.9C51.341 88.9 52.041 89.292 52.545 90.076C53.049 90.86 53.301 92.0033 53.301 93.506C53.301 95.0087 53.049 96.1613 52.545 96.964C52.041 97.7667 51.341 98.168 50.445 98.168ZM50.445 97.244C50.7063 97.244 50.9397 97.174 51.145 97.034C51.3597 96.8847 51.5417 96.6607 51.691 96.362C51.8497 96.054 51.971 95.6667 52.055 95.2C52.139 94.724 52.181 94.1593 52.181 93.506C52.181 92.8527 52.139 92.2927 52.055 91.826C51.971 91.3593 51.8497 90.9813 51.691 90.692C51.5417 90.3933 51.3597 90.174 51.145 90.034C50.9397 89.894 50.7063 89.824 50.445 89.824C50.1837 89.824 49.9457 89.894 49.731 90.034C49.5163 90.174 49.3297 90.3933 49.171 90.692C49.0217 90.9813 48.905 91.3593 48.821 91.826C48.737 92.2927 48.695 92.8527 48.695 93.506C48.695 94.8127 48.8537 95.7647 49.171 96.362C49.4977 96.95 49.9223 97.244 50.445 97.244ZM55.024 98V97.048H57.068V90.468H55.444V89.726C55.8546 89.6513 56.2093 89.5627 56.508 89.46C56.816 89.348 57.0913 89.2173 57.334 89.068H58.216V97.048H60.064V98H55.024ZM64.629 98.168C64.1903 98.168 63.7843 98.0793 63.411 97.902C63.0376 97.7247 62.711 97.4587 62.431 97.104C62.1603 96.74 61.9456 96.292 61.787 95.76C61.6283 95.2187 61.549 94.5887 61.549 93.87C61.549 92.974 61.6423 92.2133 61.829 91.588C62.0156 90.9533 62.2676 90.44 62.585 90.048C62.9023 89.6467 63.2616 89.3573 63.663 89.18C64.0736 88.9933 64.503 88.9 64.951 88.9C65.4363 88.9 65.8516 88.9933 66.197 89.18C66.5516 89.3573 66.855 89.5813 67.107 89.852L66.463 90.566C66.2763 90.3513 66.0523 90.1833 65.791 90.062C65.539 89.9313 65.273 89.866 64.993 89.866C64.685 89.866 64.391 89.9313 64.111 90.062C63.831 90.1927 63.5836 90.4073 63.369 90.706C63.1543 91.0047 62.9816 91.3967 62.851 91.882C62.7203 92.358 62.6503 92.9507 62.641 93.66C62.921 93.3147 63.2476 93.044 63.621 92.848C63.9943 92.6427 64.363 92.54 64.727 92.54C65.5016 92.54 66.1176 92.7687 66.575 93.226C67.0416 93.6833 67.275 94.374 67.275 95.298C67.275 95.7273 67.205 96.1193 67.065 96.474C66.925 96.8193 66.7336 97.118 66.491 97.37C66.2483 97.622 65.9683 97.818 65.651 97.958C65.3336 98.098 64.993 98.168 64.629 98.168ZM64.629 97.258C64.853 97.258 65.0583 97.2113 65.245 97.118C65.4316 97.0247 65.595 96.894 65.735 96.726C65.875 96.5487 65.9823 96.3433 66.057 96.11C66.141 95.8673 66.183 95.5967 66.183 95.298C66.183 94.71 66.0476 94.248 65.777 93.912C65.5063 93.576 65.091 93.408 64.531 93.408C64.2416 93.408 63.929 93.5013 63.593 93.688C63.257 93.8653 62.949 94.164 62.669 94.584C62.7436 95.4613 62.9443 96.1287 63.271 96.586C63.607 97.034 64.0596 97.258 64.629 97.258Z" fill="#FCFCFC"/>
<path d="M204.494 48V36.228H208.202C208.85 36.228 209.45 36.288 210.002 36.408C210.566 36.528 211.052 36.732 211.46 37.02C211.868 37.308 212.186 37.686 212.414 38.154C212.642 38.61 212.756 39.18 212.756 39.864C212.756 40.512 212.642 41.076 212.414 41.556C212.186 42.036 211.868 42.438 211.46 42.762C211.064 43.074 210.59 43.308 210.038 43.464C209.498 43.608 208.91 43.68 208.274 43.68H206.582V48H204.494ZM206.582 42.006H208.112C209.84 42.006 210.704 41.292 210.704 39.864C210.704 39.12 210.476 38.61 210.02 38.334C209.576 38.046 208.916 37.902 208.04 37.902H206.582V42.006ZM218.004 48.216C217.452 48.216 216.924 48.114 216.42 47.91C215.916 47.706 215.466 47.406 215.07 47.01C214.686 46.614 214.38 46.128 214.152 45.552C213.924 44.976 213.81 44.322 213.81 43.59C213.81 42.858 213.924 42.204 214.152 41.628C214.38 41.052 214.686 40.566 215.07 40.17C215.466 39.774 215.916 39.474 216.42 39.27C216.924 39.054 217.452 38.946 218.004 38.946C218.556 38.946 219.084 39.054 219.588 39.27C220.104 39.474 220.554 39.774 220.938 40.17C221.322 40.566 221.628 41.052 221.856 41.628C222.096 42.204 222.216 42.858 222.216 43.59C222.216 44.322 222.096 44.976 221.856 45.552C221.628 46.128 221.322 46.614 220.938 47.01C220.554 47.406 220.104 47.706 219.588 47.91C219.084 48.114 218.556 48.216 218.004 48.216ZM218.004 46.524C218.652 46.524 219.162 46.26 219.534 45.732C219.906 45.192 220.092 44.478 220.092 43.59C220.092 42.69 219.906 41.976 219.534 41.448C219.162 40.908 218.652 40.638 218.004 40.638C217.356 40.638 216.846 40.908 216.474 41.448C216.114 41.976 215.934 42.69 215.934 43.59C215.934 44.478 216.114 45.192 216.474 45.732C216.846 46.26 217.356 46.524 218.004 46.524ZM227.955 48.216C227.355 48.216 226.791 48.114 226.263 47.91C225.747 47.706 225.297 47.406 224.913 47.01C224.529 46.614 224.229 46.128 224.013 45.552C223.797 44.976 223.689 44.322 223.689 43.59C223.689 42.858 223.809 42.204 224.049 41.628C224.289 41.052 224.613 40.566 225.021 40.17C225.429 39.774 225.897 39.474 226.425 39.27C226.965 39.054 227.529 38.946 228.117 38.946C228.693 38.946 229.185 39.042 229.593 39.234C230.013 39.426 230.385 39.66 230.709 39.936L229.701 41.286C229.461 41.082 229.221 40.926 228.981 40.818C228.753 40.698 228.501 40.638 228.225 40.638C227.505 40.638 226.923 40.908 226.479 41.448C226.035 41.976 225.813 42.69 225.813 43.59C225.813 44.478 226.029 45.192 226.461 45.732C226.905 46.26 227.475 46.524 228.171 46.524C228.519 46.524 228.843 46.452 229.143 46.308C229.455 46.152 229.737 45.972 229.989 45.768L230.835 47.136C230.415 47.496 229.953 47.766 229.449 47.946C228.957 48.126 228.459 48.216 227.955 48.216ZM234.33 48V40.8H231.558V39.162H239.19V40.8H236.418V48H234.33ZM244.568 48V39.162H246.638V42.6H247.934L248.762 40.818C248.93 40.434 249.104 40.122 249.284 39.882C249.476 39.642 249.674 39.456 249.878 39.324C250.082 39.18 250.304 39.084 250.544 39.036C250.784 38.976 251.042 38.946 251.318 38.946C251.558 38.946 251.768 38.982 251.948 39.054L251.606 40.98C251.498 40.944 251.39 40.926 251.282 40.926C251.066 40.926 250.862 40.992 250.67 41.124C250.478 41.244 250.286 41.526 250.094 41.97L249.482 43.338L252.488 48H250.202L247.97 44.256H246.638V48H244.568ZM257.186 48.216C256.634 48.216 256.106 48.114 255.602 47.91C255.098 47.706 254.648 47.406 254.252 47.01C253.868 46.614 253.562 46.128 253.334 45.552C253.106 44.976 252.992 44.322 252.992 43.59C252.992 42.858 253.106 42.204 253.334 41.628C253.562 41.052 253.868 40.566 254.252 40.17C254.648 39.774 255.098 39.474 255.602 39.27C256.106 39.054 256.634 38.946 257.186 38.946C257.738 38.946 258.266 39.054 258.77 39.27C259.286 39.474 259.736 39.774 260.12 40.17C260.504 40.566 260.81 41.052 261.038 41.628C261.278 42.204 261.398 42.858 261.398 43.59C261.398 44.322 261.278 44.976 261.038 45.552C260.81 46.128 260.504 46.614 260.12 47.01C259.736 47.406 259.286 47.706 258.77 47.91C258.266 48.114 257.738 48.216 257.186 48.216ZM257.186 46.524C257.834 46.524 258.344 46.26 258.716 45.732C259.088 45.192 259.274 44.478 259.274 43.59C259.274 42.69 259.088 41.976 258.716 41.448C258.344 40.908 257.834 40.638 257.186 40.638C256.538 40.638 256.028 40.908 255.656 41.448C255.296 41.976 255.116 42.69 255.116 43.59C255.116 44.478 255.296 45.192 255.656 45.732C256.028 46.26 256.538 46.524 257.186 46.524ZM263.213 48.216C262.865 48.216 262.553 48.156 262.277 48.036L262.637 46.164C262.697 46.188 262.757 46.206 262.817 46.218C262.889 46.23 262.973 46.236 263.069 46.236C263.345 46.236 263.573 46.116 263.753 45.876C263.933 45.624 264.059 45.216 264.131 44.652C264.251 43.728 264.359 42.816 264.455 41.916C264.563 41.004 264.665 40.086 264.761 39.162H270.755V48H268.685V40.8H266.417C266.321 41.532 266.231 42.27 266.147 43.014C266.063 43.746 265.973 44.478 265.877 45.21C265.745 46.194 265.457 46.944 265.013 47.46C264.569 47.964 263.969 48.216 263.213 48.216ZM273.378 48V39.162H275.394V42.204C275.394 42.66 275.37 43.17 275.322 43.734C275.286 44.286 275.25 44.844 275.214 45.408H275.268C275.424 45.132 275.61 44.82 275.826 44.472C276.042 44.112 276.222 43.8 276.366 43.536L279.174 39.162H281.082V48H279.066V44.958C279.066 44.502 279.084 43.998 279.12 43.446C279.168 42.882 279.216 42.318 279.264 41.754H279.192C279.036 42.03 278.85 42.348 278.634 42.708C278.43 43.056 278.25 43.362 278.094 43.626L275.286 48H273.378ZM288.574 48V44.742C288.298 44.802 288.046 44.844 287.818 44.868C287.602 44.892 287.308 44.904 286.936 44.904C286.396 44.904 285.904 44.844 285.46 44.724C285.028 44.604 284.656 44.418 284.344 44.166C284.032 43.902 283.792 43.566 283.624 43.158C283.456 42.738 283.372 42.234 283.372 41.646V39.162H285.442V41.646C285.442 42.198 285.592 42.606 285.892 42.87C286.192 43.122 286.684 43.248 287.368 43.248C287.788 43.248 288.19 43.206 288.574 43.122V39.162H290.644V48H288.574ZM297.057 48.216C296.445 48.216 295.875 48.114 295.347 47.91C294.819 47.694 294.357 47.388 293.961 46.992C293.565 46.596 293.253 46.116 293.025 45.552C292.809 44.976 292.701 44.322 292.701 43.59C292.701 42.87 292.815 42.222 293.043 41.646C293.271 41.07 293.571 40.584 293.943 40.188C294.327 39.792 294.765 39.486 295.257 39.27C295.749 39.054 296.253 38.946 296.769 38.946C297.369 38.946 297.897 39.048 298.353 39.252C298.809 39.456 299.187 39.744 299.487 40.116C299.799 40.488 300.033 40.932 300.189 41.448C300.345 41.964 300.423 42.528 300.423 43.14C300.423 43.344 300.411 43.536 300.387 43.716C300.375 43.896 300.357 44.04 300.333 44.148H294.717C294.813 44.94 295.089 45.552 295.545 45.984C296.013 46.404 296.607 46.614 297.327 46.614C297.711 46.614 298.065 46.56 298.389 46.452C298.725 46.332 299.055 46.17 299.379 45.966L300.081 47.262C299.661 47.538 299.193 47.766 298.677 47.946C298.161 48.126 297.621 48.216 297.057 48.216ZM294.699 42.744H298.623C298.623 42.06 298.473 41.526 298.173 41.142C297.885 40.746 297.435 40.548 296.823 40.548C296.295 40.548 295.833 40.734 295.437 41.106C295.041 41.478 294.795 42.024 294.699 42.744ZM306.09 48.216C305.49 48.216 304.926 48.114 304.398 47.91C303.882 47.706 303.432 47.406 303.048 47.01C302.664 46.614 302.364 46.128 302.148 45.552C301.932 44.976 301.824 44.322 301.824 43.59C301.824 42.858 301.944 42.204 302.184 41.628C302.424 41.052 302.748 40.566 303.156 40.17C303.564 39.774 304.032 39.474 304.56 39.27C305.1 39.054 305.664 38.946 306.252 38.946C306.828 38.946 307.32 39.042 307.728 39.234C308.148 39.426 308.52 39.66 308.844 39.936L307.836 41.286C307.596 41.082 307.356 40.926 307.116 40.818C306.888 40.698 306.636 40.638 306.36 40.638C305.64 40.638 305.058 40.908 304.614 41.448C304.17 41.976 303.948 42.69 303.948 43.59C303.948 44.478 304.164 45.192 304.596 45.732C305.04 46.26 305.61 46.524 306.306 46.524C306.654 46.524 306.978 46.452 307.278 46.308C307.59 46.152 307.872 45.972 308.124 45.768L308.97 47.136C308.55 47.496 308.088 47.766 307.584 47.946C307.092 48.126 306.594 48.216 306.09 48.216ZM312.465 48V40.8H309.693V39.162H317.325V40.8H314.553V48H312.465ZM319.099 48V39.162H322.681C323.173 39.162 323.623 39.204 324.031 39.288C324.451 39.36 324.811 39.486 325.111 39.666C325.423 39.846 325.663 40.086 325.831 40.386C326.011 40.674 326.101 41.028 326.101 41.448C326.101 41.88 325.975 42.264 325.723 42.6C325.483 42.924 325.117 43.158 324.625 43.302V43.374C325.153 43.506 325.591 43.734 325.939 44.058C326.287 44.382 326.461 44.85 326.461 45.462C326.461 45.906 326.365 46.29 326.173 46.614C325.993 46.926 325.741 47.19 325.417 47.406C325.093 47.61 324.709 47.76 324.265 47.856C323.833 47.952 323.365 48 322.861 48H319.099ZM321.133 42.744H322.483C323.059 42.744 323.473 42.648 323.725 42.456C323.977 42.264 324.103 42 324.103 41.664C324.103 41.316 323.983 41.046 323.743 40.854C323.503 40.662 323.101 40.566 322.537 40.566H321.133V42.744ZM321.133 46.596H322.717C323.317 46.596 323.749 46.482 324.013 46.254C324.289 46.026 324.427 45.72 324.427 45.336C324.427 44.976 324.283 44.688 323.995 44.472C323.707 44.256 323.257 44.148 322.645 44.148H321.133V46.596ZM330.558 48.216C329.778 48.216 329.148 47.982 328.668 47.514C328.188 47.034 327.948 46.404 327.948 45.624C327.948 45.156 328.044 44.742 328.236 44.382C328.44 44.01 328.752 43.692 329.172 43.428C329.604 43.164 330.144 42.942 330.792 42.762C331.452 42.582 332.238 42.444 333.15 42.348C333.138 42.12 333.102 41.904 333.042 41.7C332.994 41.484 332.904 41.298 332.772 41.142C332.652 40.974 332.49 40.848 332.286 40.764C332.082 40.668 331.83 40.62 331.53 40.62C331.098 40.62 330.672 40.704 330.252 40.872C329.844 41.04 329.442 41.244 329.046 41.484L328.29 40.098C328.782 39.786 329.334 39.516 329.946 39.288C330.558 39.06 331.218 38.946 331.926 38.946C333.03 38.946 333.852 39.276 334.392 39.936C334.944 40.584 335.22 41.526 335.22 42.762V48H333.51L333.366 47.028H333.294C332.898 47.364 332.472 47.646 332.016 47.874C331.572 48.102 331.086 48.216 330.558 48.216ZM331.224 46.596C331.584 46.596 331.908 46.512 332.196 46.344C332.496 46.176 332.814 45.936 333.15 45.624V43.644C332.55 43.716 332.046 43.812 331.638 43.932C331.23 44.052 330.9 44.19 330.648 44.346C330.396 44.49 330.216 44.658 330.108 44.85C330 45.042 329.946 45.246 329.946 45.462C329.946 45.858 330.066 46.146 330.306 46.326C330.546 46.506 330.852 46.596 331.224 46.596ZM344.918 48.216C344.366 48.216 343.838 48.114 343.334 47.91C342.83 47.706 342.38 47.406 341.984 47.01C341.6 46.614 341.294 46.128 341.066 45.552C340.838 44.976 340.724 44.322 340.724 43.59C340.724 42.858 340.838 42.204 341.066 41.628C341.294 41.052 341.6 40.566 341.984 40.17C342.38 39.774 342.83 39.474 343.334 39.27C343.838 39.054 344.366 38.946 344.918 38.946C345.47 38.946 345.998 39.054 346.502 39.27C347.018 39.474 347.468 39.774 347.852 40.17C348.236 40.566 348.542 41.052 348.77 41.628C349.01 42.204 349.13 42.858 349.13 43.59C349.13 44.322 349.01 44.976 348.77 45.552C348.542 46.128 348.236 46.614 347.852 47.01C347.468 47.406 347.018 47.706 346.502 47.91C345.998 48.114 345.47 48.216 344.918 48.216ZM344.918 46.524C345.566 46.524 346.076 46.26 346.448 45.732C346.82 45.192 347.006 44.478 347.006 43.59C347.006 42.69 346.82 41.976 346.448 41.448C346.076 40.908 345.566 40.638 344.918 40.638C344.27 40.638 343.76 40.908 343.388 41.448C343.028 41.976 342.848 42.69 342.848 43.59C342.848 44.478 343.028 45.192 343.388 45.732C343.76 46.26 344.27 46.524 344.918 46.524ZM352.701 48V40.8H349.929V39.162H357.561V40.8H354.789V48H352.701ZM359.335 48V39.162H361.405V42.6H362.701L363.529 40.818C363.697 40.434 363.871 40.122 364.051 39.882C364.243 39.642 364.441 39.456 364.645 39.324C364.849 39.18 365.071 39.084 365.311 39.036C365.551 38.976 365.809 38.946 366.085 38.946C366.325 38.946 366.535 38.982 366.715 39.054L366.373 40.98C366.265 40.944 366.157 40.926 366.049 40.926C365.833 40.926 365.629 40.992 365.437 41.124C365.245 41.244 365.053 41.526 364.861 41.97L364.249 43.338L367.255 48H364.969L362.737 44.256H361.405V48H359.335ZM368.74 51.492V39.162H370.45L370.594 40.098H370.666C371.038 39.786 371.452 39.516 371.908 39.288C372.364 39.06 372.838 38.946 373.33 38.946C373.882 38.946 374.368 39.054 374.788 39.27C375.22 39.474 375.586 39.774 375.886 40.17C376.186 40.566 376.414 41.04 376.57 41.592C376.726 42.144 376.804 42.762 376.804 43.446C376.804 44.202 376.696 44.88 376.48 45.48C376.276 46.068 376 46.566 375.652 46.974C375.304 47.37 374.902 47.676 374.446 47.892C373.99 48.108 373.516 48.216 373.024 48.216C372.64 48.216 372.256 48.132 371.872 47.964C371.488 47.796 371.116 47.556 370.756 47.244L370.81 48.72V51.492H368.74ZM372.592 46.506C373.18 46.506 373.672 46.254 374.068 45.75C374.464 45.234 374.662 44.472 374.662 43.464C374.662 42.576 374.512 41.886 374.212 41.394C373.912 40.902 373.426 40.656 372.754 40.656C372.13 40.656 371.482 40.986 370.81 41.646V45.768C371.134 46.044 371.446 46.236 371.746 46.344C372.046 46.452 372.328 46.506 372.592 46.506ZM378.9 48V39.162H380.97V42.186H381.906C382.434 42.186 382.92 42.24 383.364 42.348C383.82 42.456 384.21 42.624 384.534 42.852C384.858 43.08 385.11 43.38 385.29 43.752C385.482 44.112 385.578 44.55 385.578 45.066C385.578 45.594 385.482 46.044 385.29 46.416C385.11 46.788 384.858 47.094 384.534 47.334C384.21 47.562 383.82 47.73 383.364 47.838C382.92 47.946 382.434 48 381.906 48H378.9ZM380.97 46.398H381.78C382.968 46.398 383.562 45.948 383.562 45.048C383.562 44.184 382.968 43.752 381.78 43.752H380.97V46.398ZM386.928 48V39.162H388.998V48H386.928ZM393.553 48V40.8H390.781V39.162H398.413V40.8H395.641V48H393.553ZM400.187 48V39.162H402.257V42.186H403.193C403.721 42.186 404.207 42.24 404.651 42.348C405.107 42.456 405.497 42.624 405.821 42.852C406.145 43.08 406.397 43.38 406.577 43.752C406.769 44.112 406.865 44.55 406.865 45.066C406.865 45.594 406.769 46.044 406.577 46.416C406.397 46.788 406.145 47.094 405.821 47.334C405.497 47.562 405.107 47.73 404.651 47.838C404.207 47.946 403.721 48 403.193 48H400.187ZM402.257 46.398H403.067C404.255 46.398 404.849 45.948 404.849 45.048C404.849 44.184 404.255 43.752 403.067 43.752H402.257V46.398ZM408.215 48V39.162H410.285V48H408.215ZM411.852 48L414.66 43.392L412.032 39.162H414.264L415.254 40.836C415.386 41.076 415.518 41.328 415.65 41.592C415.794 41.844 415.932 42.09 416.064 42.33H416.136C416.244 42.09 416.358 41.844 416.478 41.592C416.598 41.328 416.712 41.076 416.82 40.836L417.666 39.162H419.808L417.198 43.626L420.006 48H417.774L416.694 46.254C416.55 45.99 416.4 45.726 416.244 45.462C416.1 45.198 415.95 44.94 415.794 44.688H415.722C415.59 44.94 415.458 45.198 415.326 45.462C415.206 45.714 415.08 45.978 414.948 46.254L414.012 48H411.852ZM425.363 48V36.228H427.433V41.34C427.433 42 427.403 42.684 427.343 43.392C427.283 44.088 427.223 44.742 427.163 45.354H427.235L428.459 42.852L432.149 36.228H434.363V48H432.293V42.852C432.293 42.192 432.323 41.52 432.383 40.836C432.455 40.152 432.515 39.498 432.563 38.874H432.491L431.285 41.358L427.577 48H425.363ZM437.351 48V36.228H439.421V41.34C439.421 42 439.391 42.684 439.331 43.392C439.271 44.088 439.211 44.742 439.151 45.354H439.223L440.447 42.852L444.137 36.228H446.351V48H444.281V42.852C444.281 42.192 444.311 41.52 444.371 40.836C444.443 40.152 444.503 39.498 444.551 38.874H444.479L443.273 41.358L439.565 48H437.351ZM454.038 48.216C453.294 48.216 452.598 48.084 451.95 47.82C451.302 47.556 450.738 47.166 450.258 46.65C449.79 46.134 449.418 45.498 449.142 44.742C448.866 43.986 448.728 43.122 448.728 42.15C448.728 41.19 448.866 40.332 449.142 39.576C449.43 38.808 449.814 38.16 450.294 37.632C450.786 37.104 451.356 36.702 452.004 36.426C452.664 36.15 453.366 36.012 454.11 36.012C454.854 36.012 455.514 36.162 456.09 36.462C456.666 36.762 457.14 37.11 457.512 37.506L456.396 38.856C456.084 38.544 455.748 38.298 455.388 38.118C455.028 37.926 454.62 37.83 454.164 37.83C453.684 37.83 453.24 37.932 452.832 38.136C452.436 38.328 452.088 38.61 451.788 38.982C451.5 39.342 451.272 39.786 451.104 40.314C450.948 40.842 450.87 41.436 450.87 42.096C450.87 43.44 451.158 44.496 451.734 45.264C452.322 46.02 453.114 46.398 454.11 46.398C454.638 46.398 455.106 46.29 455.514 46.074C455.922 45.846 456.294 45.552 456.63 45.192L457.746 46.506C457.266 47.058 456.714 47.484 456.09 47.784C455.478 48.072 454.794 48.216 454.038 48.216ZM459.513 51.276L459.063 50.142C459.651 49.914 460.101 49.608 460.413 49.224C460.737 48.84 460.893 48.42 460.881 47.964H460.719C460.371 47.964 460.059 47.856 459.783 47.64C459.519 47.412 459.387 47.094 459.387 46.686C459.387 46.302 459.519 45.996 459.783 45.768C460.059 45.528 460.389 45.408 460.773 45.408C461.265 45.408 461.643 45.594 461.907 45.966C462.183 46.338 462.321 46.86 462.321 47.532C462.321 48.42 462.075 49.188 461.583 49.836C461.103 50.484 460.413 50.964 459.513 51.276ZM470.179 48V40.458H467.245V39.252H474.589V40.458H471.655V48H470.179ZM476.533 48V39.252H478.009V42.474H479.251C479.767 42.474 480.235 42.528 480.655 42.636C481.087 42.744 481.453 42.912 481.753 43.14C482.065 43.356 482.305 43.638 482.473 43.986C482.641 44.322 482.725 44.73 482.725 45.21C482.725 45.702 482.641 46.122 482.473 46.47C482.305 46.818 482.065 47.106 481.753 47.334C481.453 47.562 481.087 47.73 480.655 47.838C480.235 47.946 479.767 48 479.251 48H476.533ZM478.009 46.812H479.089C480.541 46.812 481.267 46.278 481.267 45.21C481.267 44.658 481.087 44.256 480.727 44.004C480.379 43.752 479.833 43.626 479.089 43.626H478.009V46.812ZM484.237 48V39.252H485.713V48H484.237ZM492.118 48.216C491.542 48.216 491.002 48.114 490.498 47.91C489.994 47.706 489.556 47.412 489.184 47.028C488.824 46.632 488.536 46.152 488.32 45.588C488.116 45.012 488.014 44.364 488.014 43.644C488.014 42.912 488.128 42.264 488.356 41.7C488.584 41.124 488.89 40.638 489.274 40.242C489.658 39.846 490.102 39.546 490.606 39.342C491.122 39.138 491.662 39.036 492.226 39.036C492.802 39.036 493.294 39.138 493.702 39.342C494.11 39.546 494.47 39.786 494.782 40.062L494.026 41.034C493.774 40.806 493.504 40.62 493.216 40.476C492.94 40.332 492.628 40.26 492.28 40.26C491.884 40.26 491.518 40.344 491.182 40.512C490.846 40.668 490.558 40.896 490.318 41.196C490.078 41.496 489.886 41.856 489.742 42.276C489.61 42.684 489.544 43.14 489.544 43.644C489.544 44.148 489.61 44.604 489.742 45.012C489.874 45.42 490.054 45.774 490.282 46.074C490.522 46.362 490.81 46.59 491.146 46.758C491.482 46.914 491.848 46.992 492.244 46.992C492.652 46.992 493.024 46.908 493.36 46.74C493.708 46.56 494.02 46.35 494.296 46.11L494.944 47.1C494.548 47.448 494.11 47.724 493.63 47.928C493.15 48.12 492.646 48.216 492.118 48.216Z" fill="#000218"/>
</svg>
